<svg xmlns="http://www.w3.org/2000/svg" viewBox="0 0 1920 600" preserveAspectRatio="xMidYMid slice">
  <defs>
    <linearGradient id="grad1" x1="0%" y1="0%" x2="100%" y2="100%">
      <stop offset="0%" style="stop-color:#0f172a;stop-opacity:1" />
      <stop offset="50%" style="stop-color:#1e293b;stop-opacity:1" />
      <stop offset="100%" style="stop-color:#0f172a;stop-opacity:1" />
    </linearGradient>
    <radialGradient id="glow1" cx="30%" cy="40%">
      <stop offset="0%" style="stop-color:#38bdf8;stop-opacity:0.15" />
      <stop offset="100%" style="stop-color:#38bdf8;stop-opacity:0" />
    </radialGradient>
    <radialGradient id="glow2" cx="70%" cy="60%">
      <stop offset="0%" style="stop-color:#22c55e;stop-opacity:0.12" />
      <stop offset="100%" style="stop-color:#22c55e;stop-opacity:0" />
    </radialGradient>
    <radialGradient id="glow3" cx="50%" cy="30%">
      <stop offset="0%" style="stop-color:#a855f7;stop-opacity:0.1" />
      <stop offset="100%" style="stop-color:#a855f7;stop-opacity:0" />
    </radialGradient>
  </defs>
  
  <!-- Base gradient background -->
  <rect width="1920" height="600" fill="url(#grad1)"/>
  
  <!-- Soft glowing orbs for calming effect -->
  <ellipse cx="600" cy="240" rx="400" ry="350" fill="url(#glow1)"/>
  <ellipse cx="1400" cy="360" rx="450" ry="400" fill="url(#glow2)"/>
  <ellipse cx="960" cy="180" rx="350" ry="300" fill="url(#glow3)"/>
  
  <!-- Abstract flowing shapes representing breath and calm -->
  <path d="M 0,300 Q 480,200 960,300 T 1920,300 L 1920,600 L 0,600 Z" 
        fill="#0a1020" opacity="0.4"/>
  <path d="M 0,350 Q 480,280 960,350 T 1920,350 L 1920,600 L 0,600 Z" 
        fill="#0b1220" opacity="0.6"/>
  
  <!-- Subtle dots pattern for texture -->
  <g opacity="0.08">
    <circle cx="200" cy="100" r="2" fill="#94a3b8"/>
    <circle cx="450" cy="180" r="2" fill="#94a3b8"/>
    <circle cx="700" cy="120" r="2" fill="#94a3b8"/>
    <circle cx="950" cy="200" r="2" fill="#94a3b8"/>
    <circle cx="1200" cy="140" r="2" fill="#94a3b8"/>
    <circle cx="1450" cy="220" r="2" fill="#94a3b8"/>
    <circle cx="1700" cy="160" r="2" fill="#94a3b8"/>
    <circle cx="350" cy="280" r="2" fill="#94a3b8"/>
    <circle cx="800" cy="340" r="2" fill="#94a3b8"/>
    <circle cx="1100" cy="300" r="2" fill="#94a3b8"/>
    <circle cx="1550" cy="380" r="2" fill="#94a3b8"/>
  </g>
  
  <!-- Breathing circle motif - represents mindfulness -->
  <g opacity="0.12">
    <circle cx="960" cy="250" r="80" fill="none" stroke="#38bdf8" stroke-width="1"/>
    <circle cx="960" cy="250" r="100" fill="none" stroke="#38bdf8" stroke-width="0.8"/>
    <circle cx="960" cy="250" r="120" fill="none" stroke="#38bdf8" stroke-width="0.6"/>
  </g>
</svg>
